<svg width="38" height="38" viewBox="0 0 38 38" fill="none" xmlns="http://www.w3.org/2000/svg">
<g clip-path="url(#clip0_2_197)">
<path fill-rule="evenodd" clip-rule="evenodd" d="M18.5944 0C8.31219 0 0 8.70833 0 19.4817C0 28.0935 5.32591 35.3831 12.7144 37.9632C13.6381 38.1571 13.9765 37.544 13.9765 37.0282C13.9765 36.5766 13.946 35.0285 13.946 33.4155C8.77349 34.5768 7.69636 31.0931 7.69636 31.0931C6.8651 28.8353 5.63344 28.255 5.63344 28.255C3.94048 27.0615 5.75676 27.0615 5.75676 27.0615C7.6347 27.1906 8.62011 29.0613 8.62011 29.0613C10.2822 32.0285 12.9606 31.1901 14.0381 30.6739C14.1919 29.416 14.6848 28.5451 15.2081 28.0614C11.0827 27.6098 6.74217 25.9326 6.74217 18.4494C6.74217 16.3206 7.48055 14.5789 8.65056 13.2244C8.46596 12.7407 7.8193 10.7405 8.83553 8.06352C8.83553 8.06352 10.4056 7.54735 13.9456 10.0633C15.4613 9.63682 17.0243 9.41989 18.5944 9.41806C20.1645 9.41806 21.7649 9.64408 23.2428 10.0633C26.7833 7.54735 28.3533 8.06352 28.3533 8.06352C29.3696 10.7405 28.7225 12.7407 28.5379 13.2244C29.7388 14.5789 30.4467 16.3206 30.4467 18.4494C30.4467 25.9326 26.1062 27.5773 21.9499 28.0614C22.6274 28.6742 23.212 29.8351 23.212 31.6738C23.212 34.2863 23.1816 36.383 23.1816 37.0278C23.1816 37.544 23.5203 38.1571 24.4437 37.9636C31.8321 35.3827 37.158 28.0935 37.158 19.4817C37.1885 8.70833 28.8458 0 18.5944 0Z" fill="#24292F"/>
</g>
<defs>
<clipPath id="clip0_2_197">
<rect width="37.3" height="38" fill="white"/>
</clipPath>
</defs>
</svg>
