<svg width="222" height="134" viewBox="0 0 222 134" fill="none" xmlns="http://www.w3.org/2000/svg">
<path d="M6.25338 46H1.59429L12.063 16.9091H17.1341L27.6028 46H22.9437L14.7193 22.1932H14.492L6.25338 46ZM7.03463 34.608H22.1483V38.3011H7.03463V34.608ZM34.7901 16.9091V46H30.5429V16.9091H34.7901ZM39.5838 54.1818V24.1818H43.7316V27.7188H44.0867C44.3329 27.2642 44.688 26.7386 45.152 26.142C45.616 25.5455 46.26 25.0246 47.0838 24.5795C47.9077 24.125 48.9967 23.8977 50.3509 23.8977C52.1122 23.8977 53.6842 24.3428 55.0668 25.233C56.4494 26.1231 57.5337 27.4062 58.3196 29.0824C59.1151 30.7585 59.5128 32.7756 59.5128 35.1335C59.5128 37.4915 59.1198 39.5133 58.3338 41.1989C57.5479 42.875 56.4683 44.1676 55.0952 45.0767C53.7221 45.9763 52.1549 46.4261 50.3935 46.4261C49.0677 46.4261 47.9835 46.2036 47.1407 45.7585C46.3073 45.3134 45.6539 44.7926 45.1804 44.196C44.7069 43.5994 44.3424 43.0691 44.0867 42.6051H43.831V54.1818H39.5838ZM43.7458 35.0909C43.7458 36.625 43.9683 37.9697 44.4134 39.125C44.8585 40.2803 45.5024 41.1847 46.3452 41.8381C47.188 42.482 48.2202 42.804 49.4418 42.804C50.7107 42.804 51.7713 42.4678 52.6236 41.7955C53.4759 41.1136 54.1198 40.1903 54.5554 39.0256C55.0005 37.8608 55.223 36.5492 55.223 35.0909C55.223 33.6515 55.0052 32.3589 54.5696 31.2131C54.1435 30.0672 53.4996 29.1629 52.6378 28.5C51.7855 27.8371 50.7202 27.5057 49.4418 27.5057C48.2107 27.5057 47.1691 27.8229 46.3168 28.4574C45.474 29.0919 44.8348 29.9773 44.3992 31.1136C43.9636 32.25 43.7458 33.5758 43.7458 35.0909ZM67.5985 33.0455V46H63.3513V16.9091H67.5417V27.733H67.8116C68.3229 26.5587 69.1042 25.6259 70.1553 24.9347C71.2065 24.2434 72.5796 23.8977 74.2746 23.8977C75.7708 23.8977 77.0777 24.2055 78.1951 24.821C79.322 25.4366 80.1932 26.3551 80.8087 27.5767C81.4337 28.7888 81.7462 30.304 81.7462 32.1222V46H77.4991V32.6335C77.4991 31.0331 77.0871 29.7926 76.2633 28.9119C75.4394 28.0218 74.2936 27.5767 72.8258 27.5767C71.822 27.5767 70.9224 27.7898 70.1269 28.2159C69.3409 28.642 68.7207 29.267 68.2661 30.0909C67.821 30.9053 67.5985 31.8902 67.5985 33.0455ZM92.8433 46.483C91.4607 46.483 90.2107 46.2273 89.0933 45.7159C87.9758 45.1951 87.0904 44.4422 86.437 43.4574C85.7931 42.4725 85.4711 41.2652 85.4711 39.8352C85.4711 38.6042 85.7079 37.5909 86.1813 36.7955C86.6548 36 87.294 35.3703 88.099 34.9062C88.9039 34.4422 89.8035 34.0919 90.7978 33.8551C91.7921 33.6184 92.8054 33.4384 93.8376 33.3153C95.1444 33.1638 96.205 33.0407 97.0194 32.946C97.8338 32.8419 98.4257 32.6761 98.795 32.4489C99.1643 32.2216 99.349 31.8523 99.349 31.3409V31.2415C99.349 30.0009 98.9986 29.0398 98.2978 28.358C97.6065 27.6761 96.5743 27.3352 95.2012 27.3352C93.7713 27.3352 92.6444 27.6525 91.8205 28.2869C91.0061 28.9119 90.4427 29.608 90.1302 30.375L86.1387 29.4659C86.6122 28.1402 87.3035 27.0701 88.2126 26.2557C89.1311 25.4318 90.187 24.8352 91.3802 24.4659C92.5734 24.0871 93.8281 23.8977 95.1444 23.8977C96.0156 23.8977 96.9389 24.0019 97.9143 24.2102C98.8991 24.4091 99.8177 24.7784 100.67 25.3182C101.532 25.858 102.237 26.6297 102.786 27.6335C103.336 28.6278 103.61 29.9205 103.61 31.5114V46H99.4626V43.017H99.2921C99.0175 43.5663 98.6056 44.1061 98.0563 44.6364C97.5071 45.1667 96.8016 45.607 95.9399 45.9574C95.0781 46.3078 94.0459 46.483 92.8433 46.483ZM93.7666 43.0739C94.9408 43.0739 95.9446 42.8419 96.7779 42.3778C97.6207 41.9138 98.2599 41.3078 98.6955 40.5597C99.1406 39.8021 99.3632 38.9924 99.3632 38.1307V35.3182C99.2116 35.4697 98.9181 35.6117 98.4825 35.7443C98.0563 35.8674 97.5687 35.9763 97.0194 36.071C96.4702 36.1562 95.9351 36.2367 95.4143 36.3125C94.8935 36.3788 94.4579 36.4356 94.1075 36.483C93.2836 36.5871 92.5308 36.7623 91.849 37.0085C91.1766 37.2547 90.6368 37.6098 90.2296 38.0739C89.8319 38.5284 89.633 39.1345 89.633 39.892C89.633 40.9432 90.0213 41.7386 90.7978 42.2784C91.5743 42.8087 92.5639 43.0739 93.7666 43.0739Z" fill="#BBDAFF"/>
<path d="M122.244 111H112.827V81.9091H122.543C125.393 81.9091 127.841 82.4915 129.886 83.6562C131.932 84.8116 133.499 86.4735 134.588 88.642C135.687 90.8011 136.236 93.3911 136.236 96.4119C136.236 99.4422 135.682 102.046 134.574 104.224C133.475 106.402 131.885 108.079 129.801 109.253C127.718 110.418 125.199 111 122.244 111ZM117.216 107.165H122.003C124.219 107.165 126.061 106.748 127.528 105.915C128.996 105.072 130.095 103.855 130.824 102.264C131.553 100.664 131.918 98.7131 131.918 96.4119C131.918 94.1297 131.553 92.1932 130.824 90.6023C130.104 89.0114 129.029 87.804 127.599 86.9801C126.17 86.1562 124.394 85.7443 122.273 85.7443H117.216V107.165ZM140.433 111V89.1818H144.538V92.6477H144.765C145.163 91.4735 145.864 90.5502 146.868 89.8778C147.881 89.196 149.027 88.8551 150.305 88.8551C150.57 88.8551 150.883 88.8646 151.243 88.8835C151.612 88.9025 151.901 88.9261 152.109 88.9545V93.017C151.939 92.9697 151.636 92.9176 151.2 92.8608C150.764 92.7945 150.329 92.7614 149.893 92.7614C148.889 92.7614 147.995 92.9744 147.209 93.4006C146.432 93.8172 145.817 94.3996 145.362 95.1477C144.907 95.8864 144.68 96.7292 144.68 97.6761V111H140.433ZM168.778 98.0455V111H164.531V89.1818H168.607V92.733H168.877C169.379 91.5777 170.165 90.6496 171.235 89.9489C172.315 89.2481 173.674 88.8977 175.312 88.8977C176.799 88.8977 178.101 89.2102 179.218 89.8352C180.335 90.4508 181.202 91.3693 181.817 92.5909C182.433 93.8125 182.741 95.3229 182.741 97.1222V111H178.494V97.6335C178.494 96.0521 178.082 94.8163 177.258 93.9261C176.434 93.0265 175.302 92.5767 173.863 92.5767C172.878 92.5767 172.002 92.7898 171.235 93.2159C170.478 93.642 169.876 94.267 169.431 95.0909C168.996 95.9053 168.778 96.8902 168.778 98.0455ZM191.423 103.599L191.395 98.4148H192.133L200.826 89.1818H205.912L195.997 99.6932H195.329L191.423 103.599ZM187.517 111V81.9091H191.764V111H187.517ZM201.295 111L193.483 100.631L196.409 97.6619L206.508 111H201.295Z" fill="#BBDAFF"/>
<line y1="-2.5" x2="137.432" y2="-2.5" transform="matrix(-0.278366 0.960475 -0.953294 -0.302043 124.933 0)" stroke="#FDFDFD" stroke-width="5"/>
<line x1="141.192" y1="120.5" x2="177.536" y2="120.5" stroke="#FDFDFD" stroke-width="3"/>
<line y1="-1.5" x2="42.9998" y2="-1.5" transform="matrix(-0.00034745 1 -1 -0.000379842 156.495 76)" stroke="#FDFDFD" stroke-width="3"/>
<line y1="-1.5" x2="31.1721" y2="-1.5" transform="matrix(-0.76704 0.641599 -0.607662 -0.794196 180.405 56)" stroke="#FDFDFD" stroke-width="3"/>
<path d="M157.93 76.5L134.497 57" stroke="#FDFDFD" stroke-width="3"/>
<line x1="142.149" y1="62.5" x2="173.71" y2="62.5" stroke="#FDFDFD"/>
</svg>
